<svg width="1725" height="850" viewBox="0 0 1725 850" fill="none" xmlns="http://www.w3.org/2000/svg">
<rect x="1050" y="700" width="150" height="150" rx="25" fill="#F8D03F"/>
<path d="M1148.01 739.273L1135.94 812H1116.19L1125.28 757.455H1124.86L1107.39 766.972L1110.09 750.21L1129.83 739.273H1148.01Z" fill="white"/>
<rect x="350" y="700" width="150" height="150" rx="25" fill="#F8D03F"/>
<path d="M420.545 812.994C414.627 812.994 409.549 812.012 405.311 810.047C401.073 808.058 397.948 805.324 395.936 801.844C393.947 798.364 393.344 794.363 394.125 789.841H413.727C413.467 791.238 413.644 792.492 414.26 793.605C414.899 794.694 415.87 795.546 417.172 796.162C418.474 796.777 419.977 797.085 421.682 797.085C423.718 797.085 425.553 796.671 427.186 795.842C428.843 795.014 430.193 793.937 431.234 792.611C432.3 791.285 432.951 789.888 433.188 788.42C433.448 786.905 433.199 785.674 432.442 784.727C431.684 783.757 430.56 783.046 429.068 782.597C427.577 782.123 425.825 781.886 423.812 781.886H416L418.273 768.25H425.233C427.245 768.25 429.092 767.883 430.773 767.149C432.454 766.415 433.85 765.409 434.963 764.131C436.076 762.829 436.762 761.361 437.023 759.727C437.236 758.473 437.129 757.384 436.703 756.46C436.301 755.513 435.579 754.779 434.537 754.259C433.519 753.738 432.17 753.477 430.489 753.477C428.666 753.477 426.914 753.797 425.233 754.436C423.552 755.075 422.143 755.963 421.007 757.099C419.871 758.236 419.196 759.538 418.983 761.006H400.233C400.967 756.555 402.802 752.625 405.737 749.216C408.673 745.807 412.366 743.132 416.817 741.19C421.291 739.249 426.18 738.278 431.483 738.278C437.023 738.278 441.734 739.296 445.616 741.332C449.499 743.368 452.352 746.067 454.175 749.429C455.998 752.791 456.578 756.46 455.915 760.438C455.205 764.723 453.275 767.966 450.126 770.168C446.978 772.369 443.036 773.671 438.301 774.074V774.642C443.462 775.234 447.451 777.128 450.268 780.324C453.086 783.52 454.116 787.45 453.358 792.114C452.719 796.091 450.884 799.654 447.854 802.803C444.823 805.951 440.941 808.437 436.206 810.26C431.495 812.083 426.275 812.994 420.545 812.994Z" fill="white"/>
<rect x="350" y="175" width="150" height="150" rx="25" fill="#F8D03F"/>
<path d="M421.261 287.994C415.698 287.994 410.916 287 406.915 285.011C402.914 283.023 399.966 280.288 398.072 276.808C396.179 273.328 395.575 269.339 396.261 264.841H415.438C415.106 267.327 415.745 269.327 417.355 270.842C418.965 272.334 421.072 273.08 423.676 273.08C425.736 273.08 427.606 272.653 429.287 271.801C430.968 270.925 432.376 269.706 433.513 268.143C434.649 266.557 435.395 264.699 435.75 262.568C436.105 260.438 435.975 258.591 435.359 257.028C434.744 255.442 433.738 254.223 432.341 253.371C430.944 252.495 429.24 252.057 427.227 252.057C425.12 252.057 423.108 252.566 421.19 253.584C419.273 254.578 417.734 255.963 416.574 257.739L399.812 254.33L409.33 214.273H458.193L455.636 230.04H422.966L418.847 246.091H419.273C420.788 243.889 423.061 242.066 426.091 240.622C429.145 239.154 432.507 238.42 436.176 238.42C440.509 238.42 444.202 239.427 447.256 241.439C450.31 243.451 452.523 246.233 453.896 249.784C455.269 253.335 455.565 257.407 454.784 262C454.003 267.066 452.085 271.553 449.031 275.459C445.977 279.365 442.071 282.431 437.312 284.656C432.554 286.882 427.204 287.994 421.261 287.994Z" fill="white"/>
<rect x="1400" y="700" width="150" height="150" rx="25" fill="#F8D03F"/>
<path d="M1443.28 812L1445.63 797.795L1476.52 775.352C1478.58 773.861 1480.36 772.464 1481.85 771.162C1483.36 769.836 1484.58 768.475 1485.51 767.078C1486.43 765.681 1487.03 764.131 1487.32 762.426C1487.63 760.556 1487.48 758.958 1486.89 757.632C1486.32 756.283 1485.4 755.253 1484.12 754.543C1482.84 753.832 1481.3 753.477 1479.51 753.477C1477.68 753.477 1476.01 753.844 1474.5 754.578C1472.98 755.312 1471.72 756.389 1470.7 757.81C1469.7 759.23 1469.04 760.958 1468.71 762.994H1449.96C1450.81 757.881 1452.69 753.477 1455.61 749.784C1458.54 746.091 1462.26 743.25 1466.76 741.261C1471.28 739.273 1476.36 738.278 1481.99 738.278C1487.82 738.278 1492.72 739.214 1496.69 741.084C1500.67 742.93 1503.55 745.535 1505.32 748.896C1507.12 752.258 1507.63 756.2 1506.85 760.722C1506.38 763.515 1505.32 766.285 1503.69 769.031C1502.08 771.777 1499.49 774.831 1495.91 778.193C1492.36 781.531 1487.44 785.509 1481.14 790.125L1473.4 795.807L1473.33 796.233H1501.74L1499.11 812H1443.28Z" fill="white"/>
<rect x="1400" y="175" width="150" height="150" rx="25" fill="#F8D03F"/>
<path d="M1441.42 275.636L1443.98 260.295L1480.91 214.273H1494.83L1491.42 234.727H1483.47L1463.58 259.727L1463.44 260.295H1506.62L1504.06 275.636H1441.42ZM1474.94 287L1477.64 270.949L1479.2 264.273L1487.44 214.273H1505.91L1493.84 287H1474.94Z" fill="white"/>
<rect x="175" y="700" width="150" height="150" rx="25" fill="#F8D03F"/>
<path d="M244.676 813.989C238.047 813.989 232.567 812.473 228.234 809.443C223.902 806.389 220.907 802.009 219.25 796.304C217.593 790.598 217.451 783.757 218.824 775.778C220.197 767.777 222.647 760.982 226.175 755.395C229.726 749.808 234.129 745.558 239.385 742.646C244.664 739.734 250.595 738.278 257.176 738.278C263.758 738.278 269.203 739.734 273.511 742.646C277.82 745.558 280.815 749.808 282.496 755.395C284.177 760.958 284.354 767.753 283.028 775.778C281.703 783.78 279.264 790.634 275.713 796.339C272.186 802.045 267.77 806.413 262.467 809.443C257.188 812.473 251.258 813.989 244.676 813.989ZM247.375 797.938C250.784 797.938 253.838 796.162 256.537 792.611C259.259 789.036 261.272 783.425 262.574 775.778C263.426 770.807 263.627 766.735 263.178 763.562C262.728 760.366 261.757 758.011 260.266 756.496C258.774 754.957 256.892 754.188 254.619 754.188C251.21 754.188 248.109 755.928 245.315 759.408C242.545 762.864 240.533 768.321 239.278 775.778C238.426 780.892 238.237 785.082 238.71 788.349C239.184 791.616 240.178 794.031 241.693 795.594C243.208 797.156 245.102 797.938 247.375 797.938Z" fill="white"/>
<rect y="700" width="150" height="150" rx="25" fill="#1E1E1E"/>
<path d="M63.608 789.273L63.892 787.568C64.5549 783.686 65.3835 780.584 66.3778 778.264C67.3958 775.944 68.6269 774.086 70.071 772.689C71.5152 771.268 73.196 769.978 75.1136 768.818C76.7708 767.824 78.2741 766.865 79.6236 765.942C80.9967 765.018 82.1212 764.036 82.9972 762.994C83.8731 761.953 84.4176 760.769 84.6307 759.443C84.8201 758.259 84.7017 757.218 84.2756 756.318C83.8494 755.419 83.1984 754.72 82.3224 754.223C81.4465 753.726 80.4167 753.477 79.233 753.477C77.9545 753.477 76.7235 753.773 75.5398 754.365C74.3561 754.957 73.3499 755.774 72.5213 756.815C71.6927 757.857 71.1837 759.064 70.9943 760.438H52.8125C53.7121 755.229 55.5824 751.003 58.4233 747.76C61.2642 744.493 64.7325 742.102 68.8281 740.587C72.9238 739.048 77.2917 738.278 81.9318 738.278C86.9508 738.278 91.3187 739.024 95.0355 740.516C98.776 741.983 101.546 744.209 103.345 747.192C105.144 750.151 105.677 753.856 104.943 758.307C104.47 761.195 103.57 763.728 102.244 765.906C100.942 768.061 99.285 769.966 97.2727 771.624C95.2604 773.257 92.9877 774.737 90.4545 776.062C88.5606 777.057 86.9389 778.075 85.5895 779.116C84.2637 780.158 83.1866 781.354 82.358 782.703C81.553 784.053 80.9848 785.674 80.6534 787.568L80.3693 789.273H63.608ZM68.7216 813.136C65.9517 813.136 63.6908 812.178 61.9389 810.26C60.2107 808.319 59.4886 805.963 59.7727 803.193C60.0568 800.494 61.276 798.186 63.4304 796.268C65.6084 794.351 68.0824 793.392 70.8523 793.392C73.4801 793.392 75.67 794.351 77.4219 796.268C79.1974 798.186 79.9432 800.494 79.6591 803.193C79.4697 805.04 78.8187 806.721 77.706 808.236C76.617 809.727 75.2675 810.923 73.6577 811.822C72.0715 812.698 70.4261 813.136 68.7216 813.136Z" fill="white"/>
<rect x="1225" y="700" width="150" height="150" rx="25" fill="#1E1E1E"/>
<path d="M1288.61 789.273L1288.89 787.568C1289.55 783.686 1290.38 780.584 1291.38 778.264C1292.4 775.944 1293.63 774.086 1295.07 772.689C1296.52 771.268 1298.2 769.978 1300.11 768.818C1301.77 767.824 1303.27 766.865 1304.62 765.942C1306 765.018 1307.12 764.036 1308 762.994C1308.87 761.953 1309.42 760.769 1309.63 759.443C1309.82 758.259 1309.7 757.218 1309.28 756.318C1308.85 755.419 1308.2 754.72 1307.32 754.223C1306.45 753.726 1305.42 753.477 1304.23 753.477C1302.95 753.477 1301.72 753.773 1300.54 754.365C1299.36 754.957 1298.35 755.774 1297.52 756.815C1296.69 757.857 1296.18 759.064 1295.99 760.438H1277.81C1278.71 755.229 1280.58 751.003 1283.42 747.76C1286.26 744.493 1289.73 742.102 1293.83 740.587C1297.92 739.048 1302.29 738.278 1306.93 738.278C1311.95 738.278 1316.32 739.024 1320.04 740.516C1323.78 741.983 1326.55 744.209 1328.35 747.192C1330.14 750.151 1330.68 753.856 1329.94 758.307C1329.47 761.195 1328.57 763.728 1327.24 765.906C1325.94 768.061 1324.29 769.966 1322.27 771.624C1320.26 773.257 1317.99 774.737 1315.45 776.062C1313.56 777.057 1311.94 778.075 1310.59 779.116C1309.26 780.158 1308.19 781.354 1307.36 782.703C1306.55 784.053 1305.98 785.674 1305.65 787.568L1305.37 789.273H1288.61ZM1293.72 813.136C1290.95 813.136 1288.69 812.178 1286.94 810.26C1285.21 808.319 1284.49 805.963 1284.77 803.193C1285.06 800.494 1286.28 798.186 1288.43 796.268C1290.61 794.351 1293.08 793.392 1295.85 793.392C1298.48 793.392 1300.67 794.351 1302.42 796.268C1304.2 798.186 1304.94 800.494 1304.66 803.193C1304.47 805.04 1303.82 806.721 1302.71 808.236C1301.62 809.727 1300.27 810.923 1298.66 811.822C1297.07 812.698 1295.43 813.136 1293.72 813.136Z" fill="white"/>
<rect x="1225" y="175" width="150" height="150" rx="25" fill="#1E1E1E"/>
<path d="M1288.61 264.273L1288.89 262.568C1289.55 258.686 1290.38 255.584 1291.38 253.264C1292.4 250.944 1293.63 249.086 1295.07 247.689C1296.52 246.268 1298.2 244.978 1300.11 243.818C1301.77 242.824 1303.27 241.865 1304.62 240.942C1306 240.018 1307.12 239.036 1308 237.994C1308.87 236.953 1309.42 235.769 1309.63 234.443C1309.82 233.259 1309.7 232.218 1309.28 231.318C1308.85 230.419 1308.2 229.72 1307.32 229.223C1306.45 228.726 1305.42 228.477 1304.23 228.477C1302.95 228.477 1301.72 228.773 1300.54 229.365C1299.36 229.957 1298.35 230.774 1297.52 231.815C1296.69 232.857 1296.18 234.064 1295.99 235.438H1277.81C1278.71 230.229 1280.58 226.003 1283.42 222.76C1286.26 219.493 1289.73 217.102 1293.83 215.587C1297.92 214.048 1302.29 213.278 1306.93 213.278C1311.95 213.278 1316.32 214.024 1320.04 215.516C1323.78 216.983 1326.55 219.209 1328.35 222.192C1330.14 225.151 1330.68 228.856 1329.94 233.307C1329.47 236.195 1328.57 238.728 1327.24 240.906C1325.94 243.061 1324.29 244.966 1322.27 246.624C1320.26 248.257 1317.99 249.737 1315.45 251.062C1313.56 252.057 1311.94 253.075 1310.59 254.116C1309.26 255.158 1308.19 256.354 1307.36 257.703C1306.55 259.053 1305.98 260.674 1305.65 262.568L1305.37 264.273H1288.61ZM1293.72 288.136C1290.95 288.136 1288.69 287.178 1286.94 285.26C1285.21 283.319 1284.49 280.963 1284.77 278.193C1285.06 275.494 1286.28 273.186 1288.43 271.268C1290.61 269.351 1293.08 268.392 1295.85 268.392C1298.48 268.392 1300.67 269.351 1302.42 271.268C1304.2 273.186 1304.94 275.494 1304.66 278.193C1304.47 280.04 1303.82 281.721 1302.71 283.236C1301.62 284.727 1300.27 285.923 1298.66 286.822C1297.07 287.698 1295.43 288.136 1293.72 288.136Z" fill="white"/>
<rect x="525" y="700" width="150" height="150" rx="25" fill="#FF7175"/>
<path d="M594.676 813.989C588.047 813.989 582.567 812.473 578.234 809.443C573.902 806.389 570.907 802.009 569.25 796.304C567.593 790.598 567.451 783.757 568.824 775.778C570.197 767.777 572.647 760.982 576.175 755.395C579.726 749.808 584.129 745.558 589.385 742.646C594.664 739.734 600.595 738.278 607.176 738.278C613.758 738.278 619.203 739.734 623.511 742.646C627.82 745.558 630.815 749.808 632.496 755.395C634.177 760.958 634.354 767.753 633.028 775.778C631.703 783.78 629.264 790.634 625.713 796.339C622.186 802.045 617.77 806.413 612.467 809.443C607.188 812.473 601.258 813.989 594.676 813.989ZM597.375 797.938C600.784 797.938 603.838 796.162 606.537 792.611C609.259 789.036 611.272 783.425 612.574 775.778C613.426 770.807 613.627 766.735 613.178 763.562C612.728 760.366 611.757 758.011 610.266 756.496C608.774 754.957 606.892 754.188 604.619 754.188C601.21 754.188 598.109 755.928 595.315 759.408C592.545 762.864 590.533 768.321 589.278 775.778C588.426 780.892 588.237 785.082 588.71 788.349C589.184 791.616 590.178 794.031 591.693 795.594C593.208 797.156 595.102 797.938 597.375 797.938Z" fill="white"/>
<rect x="875" y="700" width="150" height="150" rx="25" fill="#1E1E1E"/>
<path d="M938.608 789.273L938.892 787.568C939.555 783.686 940.384 780.584 941.378 778.264C942.396 775.944 943.627 774.086 945.071 772.689C946.515 771.268 948.196 769.978 950.114 768.818C951.771 767.824 953.274 766.865 954.624 765.942C955.997 765.018 957.121 764.036 957.997 762.994C958.873 761.953 959.418 760.769 959.631 759.443C959.82 758.259 959.702 757.218 959.276 756.318C958.849 755.419 958.198 754.72 957.322 754.223C956.446 753.726 955.417 753.477 954.233 753.477C952.955 753.477 951.723 753.773 950.54 754.365C949.356 754.957 948.35 755.774 947.521 756.815C946.693 757.857 946.184 759.064 945.994 760.438H927.812C928.712 755.229 930.582 751.003 933.423 747.76C936.264 744.493 939.732 742.102 943.828 740.587C947.924 739.048 952.292 738.278 956.932 738.278C961.951 738.278 966.319 739.024 970.036 740.516C973.776 741.983 976.546 744.209 978.345 747.192C980.144 750.151 980.677 753.856 979.943 758.307C979.47 761.195 978.57 763.728 977.244 765.906C975.942 768.061 974.285 769.966 972.273 771.624C970.26 773.257 967.988 774.737 965.455 776.062C963.561 777.057 961.939 778.075 960.589 779.116C959.264 780.158 958.187 781.354 957.358 782.703C956.553 784.053 955.985 785.674 955.653 787.568L955.369 789.273H938.608ZM943.722 813.136C940.952 813.136 938.691 812.178 936.939 810.26C935.211 808.319 934.489 805.963 934.773 803.193C935.057 800.494 936.276 798.186 938.43 796.268C940.608 794.351 943.082 793.392 945.852 793.392C948.48 793.392 950.67 794.351 952.422 796.268C954.197 798.186 954.943 800.494 954.659 803.193C954.47 805.04 953.819 806.721 952.706 808.236C951.617 809.727 950.268 810.923 948.658 811.822C947.071 812.698 945.426 813.136 943.722 813.136Z" fill="white"/>
<rect x="1050" y="175" width="150" height="150" rx="25" fill="#F8D03F"/>
<path d="M1097.55 287L1135.48 230.466L1135.62 230.04H1102.1L1104.65 214.273H1158.63L1156.07 230.04L1117.86 287H1097.55Z" fill="white"/>
<rect x="175" y="175" width="150" height="150" rx="25" fill="#F8D03F"/>
<path d="M247.392 287.994C243.036 287.994 239.023 287.296 235.354 285.899C231.684 284.502 228.595 282.312 226.085 279.33C223.576 276.323 221.859 272.44 220.936 267.682C220.013 262.923 220.119 257.194 221.256 250.494C222.226 244.694 223.824 239.509 226.05 234.94C228.275 230.348 231.009 226.441 234.253 223.222C237.496 219.978 241.154 217.516 245.226 215.835C249.298 214.131 253.666 213.278 258.33 213.278C263.727 213.278 268.332 214.296 272.143 216.332C275.979 218.345 278.867 221.067 280.808 224.5C282.75 227.909 283.59 231.697 283.33 235.864H264.153C264.153 233.757 263.455 232.265 262.058 231.389C260.661 230.49 258.992 230.04 257.051 230.04C252.766 230.04 249.25 231.934 246.504 235.722C243.758 239.486 241.829 244.315 240.716 250.21L241.284 249.216C242.586 246.991 244.267 245.12 246.327 243.605C248.41 242.09 250.706 240.942 253.216 240.161C255.749 239.379 258.353 238.989 261.028 238.989C265.55 238.989 269.35 240.03 272.428 242.114C275.505 244.197 277.695 247.05 278.997 250.672C280.299 254.294 280.56 258.402 279.778 262.994C278.95 268.061 277.032 272.464 274.026 276.205C271.019 279.945 267.219 282.845 262.626 284.905C258.034 286.964 252.955 287.994 247.392 287.994ZM248.102 273.08C250.209 273.08 252.174 272.594 253.997 271.624C255.844 270.629 257.383 269.28 258.614 267.575C259.845 265.847 260.602 263.894 260.886 261.716C261.17 259.869 261.028 258.248 260.46 256.851C259.916 255.43 259.016 254.33 257.761 253.548C256.507 252.743 254.944 252.341 253.074 252.341C251.535 252.341 250.055 252.625 248.635 253.193C247.214 253.761 245.924 254.554 244.764 255.572C243.604 256.59 242.634 257.798 241.852 259.195C241.071 260.568 240.55 262.071 240.29 263.705C240.029 265.622 240.183 267.279 240.751 268.676C241.32 270.073 242.231 271.162 243.486 271.943C244.764 272.701 246.303 273.08 248.102 273.08Z" fill="white"/>
<rect y="175" width="150" height="150" rx="25" fill="#1E1E1E"/>
<path d="M63.608 264.273L63.892 262.568C64.5549 258.686 65.3835 255.584 66.3778 253.264C67.3958 250.944 68.6269 249.086 70.071 247.689C71.5152 246.268 73.196 244.978 75.1136 243.818C76.7708 242.824 78.2741 241.865 79.6236 240.942C80.9967 240.018 82.1212 239.036 82.9972 237.994C83.8731 236.953 84.4176 235.769 84.6307 234.443C84.8201 233.259 84.7017 232.218 84.2756 231.318C83.8494 230.419 83.1984 229.72 82.3224 229.223C81.4465 228.726 80.4167 228.477 79.233 228.477C77.9545 228.477 76.7235 228.773 75.5398 229.365C74.3561 229.957 73.3499 230.774 72.5213 231.815C71.6927 232.857 71.1837 234.064 70.9943 235.438H52.8125C53.7121 230.229 55.5824 226.003 58.4233 222.76C61.2642 219.493 64.7325 217.102 68.8281 215.587C72.9238 214.048 77.2917 213.278 81.9318 213.278C86.9508 213.278 91.3187 214.024 95.0355 215.516C98.776 216.983 101.546 219.209 103.345 222.192C105.144 225.151 105.677 228.856 104.943 233.307C104.47 236.195 103.57 238.728 102.244 240.906C100.942 243.061 99.285 244.966 97.2727 246.624C95.2604 248.257 92.9877 249.737 90.4545 251.062C88.5606 252.057 86.9389 253.075 85.5895 254.116C84.2637 255.158 83.1866 256.354 82.358 257.703C81.553 259.053 80.9848 260.674 80.6534 262.568L80.3693 264.273H63.608ZM68.7216 288.136C65.9517 288.136 63.6908 287.178 61.9389 285.26C60.2107 283.319 59.4886 280.963 59.7727 278.193C60.0568 275.494 61.276 273.186 63.4304 271.268C65.6084 269.351 68.0824 268.392 70.8523 268.392C73.4801 268.392 75.67 269.351 77.4219 271.268C79.1974 273.186 79.9432 275.494 79.6591 278.193C79.4697 280.04 78.8187 281.721 77.706 283.236C76.617 284.727 75.2675 285.923 73.6577 286.822C72.0715 287.698 70.4261 288.136 68.7216 288.136Z" fill="white"/>
<rect x="525" y="175" width="150" height="150" rx="25" fill="#FF7175"/>
<path d="M597.392 287.994C593.036 287.994 589.023 287.296 585.354 285.899C581.684 284.502 578.595 282.312 576.085 279.33C573.576 276.323 571.859 272.44 570.936 267.682C570.013 262.923 570.119 257.194 571.256 250.494C572.226 244.694 573.824 239.509 576.05 234.94C578.275 230.348 581.009 226.441 584.253 223.222C587.496 219.978 591.154 217.516 595.226 215.835C599.298 214.131 603.666 213.278 608.33 213.278C613.727 213.278 618.332 214.296 622.143 216.332C625.979 218.345 628.867 221.067 630.808 224.5C632.75 227.909 633.59 231.697 633.33 235.864H614.153C614.153 233.757 613.455 232.265 612.058 231.389C610.661 230.49 608.992 230.04 607.051 230.04C602.766 230.04 599.25 231.934 596.504 235.722C593.758 239.486 591.829 244.315 590.716 250.21L591.284 249.216C592.586 246.991 594.267 245.12 596.327 243.605C598.41 242.09 600.706 240.942 603.216 240.161C605.749 239.379 608.353 238.989 611.028 238.989C615.55 238.989 619.35 240.03 622.428 242.114C625.505 244.197 627.695 247.05 628.997 250.672C630.299 254.294 630.56 258.402 629.778 262.994C628.95 268.061 627.032 272.464 624.026 276.205C621.019 279.945 617.219 282.845 612.626 284.905C608.034 286.964 602.955 287.994 597.392 287.994ZM598.102 273.08C600.209 273.08 602.174 272.594 603.997 271.624C605.844 270.629 607.383 269.28 608.614 267.575C609.845 265.847 610.602 263.894 610.886 261.716C611.17 259.869 611.028 258.248 610.46 256.851C609.916 255.43 609.016 254.33 607.761 253.548C606.507 252.743 604.944 252.341 603.074 252.341C601.535 252.341 600.055 252.625 598.635 253.193C597.214 253.761 595.924 254.554 594.764 255.572C593.604 256.59 592.634 257.798 591.852 259.195C591.071 260.568 590.55 262.071 590.29 263.705C590.029 265.622 590.183 267.279 590.751 268.676C591.32 270.073 592.231 271.162 593.486 271.943C594.764 272.701 596.303 273.08 598.102 273.08Z" fill="white"/>
<rect x="700" y="175" width="150" height="150" rx="25" fill="#FF7175"/>
<path d="M747.551 287L785.477 230.466L785.619 230.04H752.097L754.653 214.273H808.631L806.074 230.04L767.864 287H747.551Z" fill="white"/>
<rect x="875" y="175" width="150" height="150" rx="25" fill="#1E1E1E"/>
<path d="M938.608 264.273L938.892 262.568C939.555 258.686 940.384 255.584 941.378 253.264C942.396 250.944 943.627 249.086 945.071 247.689C946.515 246.268 948.196 244.978 950.114 243.818C951.771 242.824 953.274 241.865 954.624 240.942C955.997 240.018 957.121 239.036 957.997 237.994C958.873 236.953 959.418 235.769 959.631 234.443C959.82 233.259 959.702 232.218 959.276 231.318C958.849 230.419 958.198 229.72 957.322 229.223C956.446 228.726 955.417 228.477 954.233 228.477C952.955 228.477 951.723 228.773 950.54 229.365C949.356 229.957 948.35 230.774 947.521 231.815C946.693 232.857 946.184 234.064 945.994 235.438H927.812C928.712 230.229 930.582 226.003 933.423 222.76C936.264 219.493 939.732 217.102 943.828 215.587C947.924 214.048 952.292 213.278 956.932 213.278C961.951 213.278 966.319 214.024 970.036 215.516C973.776 216.983 976.546 219.209 978.345 222.192C980.144 225.151 980.677 228.856 979.943 233.307C979.47 236.195 978.57 238.728 977.244 240.906C975.942 243.061 974.285 244.966 972.273 246.624C970.26 248.257 967.988 249.737 965.455 251.062C963.561 252.057 961.939 253.075 960.589 254.116C959.264 255.158 958.187 256.354 957.358 257.703C956.553 259.053 955.985 260.674 955.653 262.568L955.369 264.273H938.608ZM943.722 288.136C940.952 288.136 938.691 287.178 936.939 285.26C935.211 283.319 934.489 280.963 934.773 278.193C935.057 275.494 936.276 273.186 938.43 271.268C940.608 269.351 943.082 268.392 945.852 268.392C948.48 268.392 950.67 269.351 952.422 271.268C954.197 273.186 954.943 275.494 954.659 278.193C954.47 280.04 953.819 281.721 952.706 283.236C951.617 284.727 950.268 285.923 948.658 286.822C947.071 287.698 945.426 288.136 943.722 288.136Z" fill="white"/>
<rect x="1400" y="350" width="150" height="150" rx="25" fill="#385CC7"/>
<path d="M1441.42 450.636L1443.98 435.295L1480.91 389.273H1494.83L1491.42 409.727H1483.47L1463.58 434.727L1463.44 435.295H1506.62L1504.06 450.636H1441.42ZM1474.94 462L1477.64 445.949L1479.2 439.273L1487.44 389.273H1505.91L1493.84 462H1474.94Z" fill="white"/>
<rect x="1225" y="350" width="150" height="150" rx="25" fill="#2AD5AE"/>
<path d="M1296.26 462.994C1290.7 462.994 1285.92 462 1281.91 460.011C1277.91 458.023 1274.97 455.288 1273.07 451.808C1271.18 448.328 1270.57 444.339 1271.26 439.841H1290.44C1290.11 442.327 1290.75 444.327 1292.36 445.842C1293.96 447.334 1296.07 448.08 1298.68 448.08C1300.74 448.08 1302.61 447.653 1304.29 446.801C1305.97 445.925 1307.38 444.706 1308.51 443.143C1309.65 441.557 1310.39 439.699 1310.75 437.568C1311.11 435.438 1310.97 433.591 1310.36 432.028C1309.74 430.442 1308.74 429.223 1307.34 428.371C1305.94 427.495 1304.24 427.057 1302.23 427.057C1300.12 427.057 1298.11 427.566 1296.19 428.584C1294.27 429.578 1292.73 430.963 1291.57 432.739L1274.81 429.33L1284.33 389.273H1333.19L1330.64 405.04H1297.97L1293.85 421.091H1294.27C1295.79 418.889 1298.06 417.066 1301.09 415.622C1304.14 414.154 1307.51 413.42 1311.18 413.42C1315.51 413.42 1319.2 414.427 1322.26 416.439C1325.31 418.451 1327.52 421.233 1328.9 424.784C1330.27 428.335 1330.57 432.407 1329.78 437C1329 442.066 1327.09 446.553 1324.03 450.459C1320.98 454.365 1317.07 457.431 1312.31 459.656C1307.55 461.882 1302.2 462.994 1296.26 462.994Z" fill="white"/>
<rect x="1050" y="350" width="150" height="150" rx="25" fill="#2AD5AE"/>
<path d="M1091.42 450.636L1093.98 435.295L1130.91 389.273H1144.83L1141.42 409.727H1133.47L1113.58 434.727L1113.44 435.295H1156.62L1154.06 450.636H1091.42ZM1124.94 462L1127.64 445.949L1129.2 439.273L1137.44 389.273H1155.91L1143.84 462H1124.94Z" fill="white"/>
<rect x="1225" width="150" height="150" rx="25" fill="#FF7175"/>
<path d="M1266.42 100.636L1268.98 85.2955L1305.91 39.2727H1319.83L1316.42 59.7273H1308.47L1288.58 84.7273L1288.44 85.2955H1331.62L1329.06 100.636H1266.42ZM1299.94 112L1302.64 95.9489L1304.2 89.2727L1312.44 39.2727H1330.91L1318.84 112H1299.94Z" fill="white"/>
<rect x="1400" width="150" height="150" rx="25" fill="#FF7175"/>
<path d="M1471.26 112.994C1465.7 112.994 1460.92 112 1456.91 110.011C1452.91 108.023 1449.97 105.288 1448.07 101.808C1446.18 98.3281 1445.57 94.339 1446.26 89.8409H1465.44C1465.11 92.3267 1465.75 94.3272 1467.36 95.8423C1468.96 97.3338 1471.07 98.0795 1473.68 98.0795C1475.74 98.0795 1477.61 97.6534 1479.29 96.8011C1480.97 95.9252 1482.38 94.706 1483.51 93.1435C1484.65 91.5573 1485.39 89.6989 1485.75 87.5682C1486.11 85.4375 1485.97 83.5909 1485.36 82.0284C1484.74 80.4422 1483.74 79.223 1482.34 78.3707C1480.94 77.4948 1479.24 77.0568 1477.23 77.0568C1475.12 77.0568 1473.11 77.5658 1471.19 78.5838C1469.27 79.5781 1467.73 80.9631 1466.57 82.7386L1449.81 79.3295L1459.33 39.2727H1508.19L1505.64 55.0398H1472.97L1468.85 71.0909H1469.27C1470.79 68.8892 1473.06 67.0663 1476.09 65.6222C1479.14 64.1544 1482.51 63.4205 1486.18 63.4205C1490.51 63.4205 1494.2 64.4266 1497.26 66.4389C1500.31 68.4512 1502.52 71.233 1503.9 74.7841C1505.27 78.3352 1505.57 82.4072 1504.78 87C1504 92.0663 1502.09 96.5526 1499.03 100.459C1495.98 104.365 1492.07 107.431 1487.31 109.656C1482.55 111.882 1477.2 112.994 1471.26 112.994Z" fill="white"/>
<rect x="350" width="150" height="150" rx="25" fill="#1E1E1E"/>
<path d="M413.608 89.2727L413.892 87.5682C414.555 83.6856 415.384 80.5843 416.378 78.2642C417.396 75.9441 418.627 74.0857 420.071 72.6889C421.515 71.2685 423.196 69.9782 425.114 68.8182C426.771 67.8239 428.274 66.8651 429.624 65.9418C430.997 65.0185 432.121 64.036 432.997 62.9943C433.873 61.9527 434.418 60.7689 434.631 59.4432C434.82 58.2595 434.702 57.2178 434.276 56.3182C433.849 55.4186 433.198 54.7202 432.322 54.223C431.446 53.7259 430.417 53.4773 429.233 53.4773C427.955 53.4773 426.723 53.7732 425.54 54.3651C424.356 54.9569 423.35 55.7737 422.521 56.8153C421.693 57.857 421.184 59.0644 420.994 60.4375H402.812C403.712 55.2292 405.582 51.0033 408.423 47.7599C411.264 44.4929 414.732 42.1018 418.828 40.5866C422.924 39.0478 427.292 38.2784 431.932 38.2784C436.951 38.2784 441.319 39.0241 445.036 40.5156C448.776 41.9834 451.546 44.2088 453.345 47.1918C455.144 50.151 455.677 53.8561 454.943 58.3068C454.47 61.1951 453.57 63.7282 452.244 65.9062C450.942 68.0606 449.285 69.9664 447.273 71.6236C445.26 73.2571 442.988 74.7367 440.455 76.0625C438.561 77.0568 436.939 78.0748 435.589 79.1165C434.264 80.1581 433.187 81.3537 432.358 82.7031C431.553 84.0526 430.985 85.6742 430.653 87.5682L430.369 89.2727H413.608ZM418.722 113.136C415.952 113.136 413.691 112.178 411.939 110.26C410.211 108.319 409.489 105.963 409.773 103.193C410.057 100.494 411.276 98.1861 413.43 96.2685C415.608 94.3509 418.082 93.392 420.852 93.392C423.48 93.392 425.67 94.3509 427.422 96.2685C429.197 98.1861 429.943 100.494 429.659 103.193C429.47 105.04 428.819 106.721 427.706 108.236C426.617 109.727 425.268 110.923 423.658 111.822C422.071 112.698 420.426 113.136 418.722 113.136Z" fill="white"/>
<rect x="700" y="700" width="150" height="150" rx="25" fill="#385CC7"/>
<path d="M798.011 739.273L785.938 812H766.193L775.284 757.455H774.858L757.386 766.972L760.085 750.21L779.83 739.273H798.011Z" fill="white"/>
<rect x="1050" width="150" height="150" rx="25" fill="#385CC7"/>
<path d="M1120.69 112.994C1114.84 112.994 1109.75 112.095 1105.42 110.295C1101.11 108.473 1097.89 105.999 1095.76 102.874C1093.63 99.7249 1092.89 96.1856 1093.56 92.2557C1094.08 89.2727 1095.3 86.5384 1097.21 84.0526C1099.16 81.5668 1101.55 79.4953 1104.39 77.8381C1107.23 76.1809 1110.25 75.1155 1113.44 74.642V74.0739C1109.51 73.3636 1106.45 71.517 1104.25 68.5341C1102.07 65.5511 1101.3 62.0473 1101.94 58.0227C1102.55 54.2112 1104.3 50.8258 1107.19 47.8665C1110.11 44.8835 1113.8 42.5398 1118.27 40.8352C1122.77 39.1307 1127.7 38.2784 1133.05 38.2784C1138.4 38.2784 1143.02 39.1425 1146.93 40.8707C1150.84 42.5753 1153.75 44.919 1155.67 47.902C1157.58 50.8613 1158.23 54.2348 1157.62 58.0227C1156.96 62.0947 1155.05 65.6103 1151.9 68.5696C1148.75 71.5289 1145.02 73.3636 1140.72 74.0739V74.642C1143.77 75.1155 1146.43 76.1809 1148.71 77.8381C1151 79.4716 1152.7 81.5312 1153.78 84.017C1154.87 86.5028 1155.16 89.2491 1154.64 92.2557C1153.97 96.1619 1152.07 99.6894 1148.92 102.838C1145.77 105.963 1141.75 108.437 1136.85 110.26C1131.97 112.083 1126.58 112.994 1120.69 112.994ZM1122.96 99.358C1124.83 99.358 1126.55 98.9792 1128.11 98.2216C1129.67 97.4403 1130.97 96.3868 1132.02 95.0611C1133.08 93.7116 1133.76 92.2083 1134.04 90.5511C1134.32 88.8466 1134.16 87.3433 1133.54 86.0412C1132.93 84.7391 1131.94 83.7211 1130.6 82.9872C1129.27 82.2533 1127.67 81.8864 1125.8 81.8864C1123.93 81.8864 1122.2 82.2652 1120.62 83.0227C1119.05 83.7566 1117.75 84.7746 1116.71 86.0767C1115.67 87.3788 1115.01 88.8703 1114.72 90.5511C1114.44 92.232 1114.6 93.7472 1115.22 95.0966C1115.86 96.4223 1116.85 97.464 1118.2 98.2216C1119.55 98.9792 1121.14 99.358 1122.96 99.358ZM1128.07 68.25C1129.73 68.25 1131.25 67.9067 1132.62 67.2202C1134.02 66.5099 1135.18 65.5511 1136.1 64.3438C1137.02 63.1364 1137.61 61.7869 1137.88 60.2955C1138.14 58.7566 1138.01 57.4072 1137.48 56.2472C1136.96 55.0634 1136.12 54.1401 1134.96 53.4773C1133.8 52.8144 1132.41 52.483 1130.77 52.483C1129.14 52.483 1127.61 52.8262 1126.19 53.5128C1124.79 54.1757 1123.61 55.099 1122.64 56.2827C1121.69 57.4427 1121.09 58.7803 1120.83 60.2955C1120.57 61.8106 1120.71 63.1719 1121.26 64.3793C1121.8 65.563 1122.65 66.5099 1123.81 67.2202C1125 67.9067 1126.42 68.25 1128.07 68.25Z" fill="white"/>
<rect x="875" width="150" height="150" rx="25" fill="#2AD5AE"/>
<path d="M956.199 38.2784C960.555 38.2784 964.568 38.9768 968.237 40.3736C971.907 41.7704 974.996 43.9602 977.506 46.9432C980.015 49.9025 981.732 53.7377 982.655 58.4489C983.578 63.16 983.472 68.8419 982.335 75.4943C981.341 81.3419 979.731 86.5857 977.506 91.2259C975.304 95.866 972.581 99.8078 969.338 103.051C966.095 106.271 962.437 108.733 958.365 110.438C954.317 112.142 949.949 112.994 945.261 112.994C939.864 112.994 935.247 111.976 931.412 109.94C927.6 107.904 924.724 105.158 922.783 101.702C920.865 98.2453 920.025 94.3864 920.261 90.125H939.438C939.414 92.3977 940.1 93.9839 941.497 94.8835C942.918 95.7831 944.598 96.233 946.54 96.233C950.848 96.233 954.376 94.339 957.122 90.5511C959.868 86.7396 961.786 81.8153 962.875 75.7784L962.307 76.7727C961.028 78.9981 959.348 80.8684 957.264 82.3835C955.205 83.8987 952.908 85.0469 950.375 85.8281C947.866 86.6094 945.261 87 942.562 87C938.064 87 934.277 85.9583 931.199 83.875C928.121 81.7917 925.931 78.9508 924.629 75.3523C923.327 71.7538 923.055 67.6818 923.812 63.1364C924.665 58.1174 926.594 53.7495 929.601 50.0327C932.607 46.2921 936.407 43.4039 941 41.3679C945.593 39.3082 950.659 38.2784 956.199 38.2784ZM955.489 53.1932C953.405 53.1932 951.44 53.6903 949.594 54.6847C947.747 55.6553 946.208 56.9929 944.977 58.6974C943.746 60.3783 942.989 62.2841 942.705 64.4148C942.468 66.214 942.622 67.812 943.166 69.2088C943.711 70.6056 944.61 71.6946 945.865 72.4759C947.12 73.2571 948.67 73.6477 950.517 73.6477C952.08 73.6477 953.571 73.3636 954.991 72.7955C956.412 72.2273 957.702 71.446 958.862 70.4517C960.046 69.4337 961.017 68.2382 961.774 66.8651C962.555 65.492 963.064 64.0123 963.301 62.4261C963.585 60.5795 963.443 58.9697 962.875 57.5966C962.307 56.1998 961.395 55.1226 960.141 54.3651C958.886 53.5838 957.335 53.1932 955.489 53.1932Z" fill="white"/>
<rect x="700" width="150" height="150" rx="25" fill="#2AD5AE"/>
<path d="M770.688 112.994C764.84 112.994 759.75 112.095 755.418 110.295C751.109 108.473 747.889 105.999 745.759 102.874C743.628 99.7249 742.894 96.1856 743.557 92.2557C744.078 89.2727 745.297 86.5384 747.214 84.0526C749.156 81.5668 751.547 79.4953 754.388 77.8381C757.229 76.1809 760.247 75.1155 763.443 74.642V74.0739C759.513 73.3636 756.447 71.517 754.246 68.5341C752.068 65.5511 751.298 62.0473 751.938 58.0227C752.553 54.2112 754.305 50.8258 757.193 47.8665C760.105 44.8835 763.798 42.5398 768.273 40.8352C772.771 39.1307 777.695 38.2784 783.045 38.2784C788.396 38.2784 793.024 39.1425 796.93 40.8707C800.837 42.5753 803.749 44.919 805.666 47.902C807.584 50.8613 808.235 54.2348 807.619 58.0227C806.956 62.0947 805.051 65.6103 801.902 68.5696C798.753 71.5289 795.025 73.3636 790.716 74.0739V74.642C793.77 75.1155 796.433 76.1809 798.706 77.8381C801.002 79.4716 802.695 81.5312 803.784 84.017C804.873 86.5028 805.157 89.2491 804.636 92.2557C803.973 96.1619 802.068 99.6894 798.919 102.838C795.77 105.963 791.746 108.437 786.845 110.26C781.968 112.083 776.582 112.994 770.688 112.994ZM772.96 99.358C774.83 99.358 776.547 98.9792 778.109 98.2216C779.672 97.4403 780.974 96.3868 782.016 95.0611C783.081 93.7116 783.756 92.2083 784.04 90.5511C784.324 88.8466 784.158 87.3433 783.543 86.0412C782.927 84.7391 781.945 83.7211 780.595 82.9872C779.269 82.2533 777.671 81.8864 775.801 81.8864C773.931 81.8864 772.203 82.2652 770.616 83.0227C769.054 83.7566 767.752 84.7746 766.71 86.0767C765.669 87.3788 765.006 88.8703 764.722 90.5511C764.438 92.232 764.603 93.7472 765.219 95.0966C765.858 96.4223 766.852 97.464 768.202 98.2216C769.551 98.9792 771.137 99.358 772.96 99.358ZM778.074 68.25C779.731 68.25 781.246 67.9067 782.619 67.2202C784.016 66.5099 785.176 65.5511 786.099 64.3438C787.023 63.1364 787.615 61.7869 787.875 60.2955C788.135 58.7566 788.005 57.4072 787.484 56.2472C786.964 55.0634 786.123 54.1401 784.963 53.4773C783.803 52.8144 782.406 52.483 780.773 52.483C779.139 52.483 777.612 52.8262 776.192 53.5128C774.795 54.1757 773.611 55.099 772.641 56.2827C771.694 57.4427 771.09 58.7803 770.83 60.2955C770.569 61.8106 770.711 63.1719 771.256 64.3793C771.8 65.563 772.652 66.5099 773.812 67.2202C774.996 67.9067 776.417 68.25 778.074 68.25Z" fill="white"/>
<rect x="525" width="150" height="150" rx="25" fill="#F8D03F"/>
<path d="M606.199 38.2784C610.555 38.2784 614.568 38.9768 618.237 40.3736C621.907 41.7704 624.996 43.9602 627.506 46.9432C630.015 49.9025 631.732 53.7377 632.655 58.4489C633.578 63.16 633.472 68.8419 632.335 75.4943C631.341 81.3419 629.731 86.5857 627.506 91.2259C625.304 95.866 622.581 99.8078 619.338 103.051C616.095 106.271 612.437 108.733 608.365 110.438C604.317 112.142 599.949 112.994 595.261 112.994C589.864 112.994 585.247 111.976 581.412 109.94C577.6 107.904 574.724 105.158 572.783 101.702C570.865 98.2453 570.025 94.3864 570.261 90.125H589.438C589.414 92.3977 590.1 93.9839 591.497 94.8835C592.918 95.7831 594.598 96.233 596.54 96.233C600.848 96.233 604.376 94.339 607.122 90.5511C609.868 86.7396 611.786 81.8153 612.875 75.7784L612.307 76.7727C611.028 78.9981 609.348 80.8684 607.264 82.3835C605.205 83.8987 602.908 85.0469 600.375 85.8281C597.866 86.6094 595.261 87 592.562 87C588.064 87 584.277 85.9583 581.199 83.875C578.121 81.7917 575.931 78.9508 574.629 75.3523C573.327 71.7538 573.055 67.6818 573.812 63.1364C574.665 58.1174 576.594 53.7495 579.601 50.0327C582.607 46.2921 586.407 43.4039 591 41.3679C595.593 39.3082 600.659 38.2784 606.199 38.2784ZM605.489 53.1932C603.405 53.1932 601.44 53.6903 599.594 54.6847C597.747 55.6553 596.208 56.9929 594.977 58.6974C593.746 60.3783 592.989 62.2841 592.705 64.4148C592.468 66.214 592.622 67.812 593.166 69.2088C593.711 70.6056 594.61 71.6946 595.865 72.4759C597.12 73.2571 598.67 73.6477 600.517 73.6477C602.08 73.6477 603.571 73.3636 604.991 72.7955C606.412 72.2273 607.702 71.446 608.862 70.4517C610.046 69.4337 611.017 68.2382 611.774 66.8651C612.555 65.492 613.064 64.0123 613.301 62.4261C613.585 60.5795 613.443 58.9697 612.875 57.5966C612.307 56.1998 611.395 55.1226 610.141 54.3651C608.886 53.5838 607.335 53.1932 605.489 53.1932Z" fill="white"/>
<rect width="150" height="150" rx="25" fill="#FF7175"/>
<path d="M70.6875 112.994C64.84 112.994 59.75 112.095 55.4176 110.295C51.1089 108.473 47.8892 105.999 45.7585 102.874C43.6278 99.7249 42.8939 96.1856 43.5568 92.2557C44.0777 89.2727 45.2969 86.5384 47.2145 84.0526C49.1558 81.5668 51.5469 79.4953 54.3878 77.8381C57.2287 76.1809 60.2472 75.1155 63.4432 74.642V74.0739C59.5133 73.3636 56.4474 71.517 54.2457 68.5341C52.0677 65.5511 51.2983 62.0473 51.9375 58.0227C52.553 54.2112 54.3049 50.8258 57.1932 47.8665C60.1051 44.8835 63.7983 42.5398 68.2727 40.8352C72.7708 39.1307 77.6951 38.2784 83.0455 38.2784C88.3958 38.2784 93.0241 39.1425 96.9304 40.8707C100.837 42.5753 103.749 44.919 105.666 47.902C107.584 50.8613 108.235 54.2348 107.619 58.0227C106.956 62.0947 105.051 65.6103 101.902 68.5696C98.7533 71.5289 95.0246 73.3636 90.7159 74.0739V74.642C93.7699 75.1155 96.4332 76.1809 98.706 77.8381C101.002 79.4716 102.695 81.5312 103.784 84.017C104.873 86.5028 105.157 89.2491 104.636 92.2557C103.973 96.1619 102.068 99.6894 98.919 102.838C95.7704 105.963 91.7457 108.437 86.8452 110.26C81.9683 112.083 76.5824 112.994 70.6875 112.994ZM72.9602 99.358C74.8305 99.358 76.5469 98.9792 78.1094 98.2216C79.6719 97.4403 80.974 96.3868 82.0156 95.0611C83.081 93.7116 83.7557 92.2083 84.0398 90.5511C84.3239 88.8466 84.1581 87.3433 83.5426 86.0412C82.9271 84.7391 81.9446 83.7211 80.5952 82.9872C79.2694 82.2533 77.6714 81.8864 75.8011 81.8864C73.9309 81.8864 72.2027 82.2652 70.6165 83.0227C69.054 83.7566 67.7519 84.7746 66.7102 86.0767C65.6686 87.3788 65.0057 88.8703 64.7216 90.5511C64.4375 92.232 64.6032 93.7472 65.2188 95.0966C65.858 96.4223 66.8523 97.464 68.2017 98.2216C69.5511 98.9792 71.1373 99.358 72.9602 99.358ZM78.0739 68.25C79.7311 68.25 81.2462 67.9067 82.6193 67.2202C84.0161 66.5099 85.1761 65.5511 86.0994 64.3438C87.0227 63.1364 87.6146 61.7869 87.875 60.2955C88.1354 58.7566 88.0052 57.4072 87.4844 56.2472C86.9635 55.0634 86.1231 54.1401 84.9631 53.4773C83.803 52.8144 82.4063 52.483 80.7727 52.483C79.1392 52.483 77.6122 52.8262 76.1918 53.5128C74.795 54.1757 73.6113 55.099 72.6406 56.2827C71.6937 57.4427 71.09 58.7803 70.8295 60.2955C70.5691 61.8106 70.7112 63.1719 71.2557 64.3793C71.8002 65.563 72.6525 66.5099 73.8125 67.2202C74.9962 67.9067 76.4167 68.25 78.0739 68.25Z" fill="white"/>
<rect x="175" width="150" height="150" rx="25" fill="#385CC7"/>
<path d="M256.199 38.2784C260.555 38.2784 264.568 38.9768 268.237 40.3736C271.907 41.7704 274.996 43.9602 277.506 46.9432C280.015 49.9025 281.732 53.7377 282.655 58.4489C283.578 63.16 283.472 68.8419 282.335 75.4943C281.341 81.3419 279.731 86.5857 277.506 91.2259C275.304 95.866 272.581 99.8078 269.338 103.051C266.095 106.271 262.437 108.733 258.365 110.438C254.317 112.142 249.949 112.994 245.261 112.994C239.864 112.994 235.247 111.976 231.412 109.94C227.6 107.904 224.724 105.158 222.783 101.702C220.865 98.2453 220.025 94.3864 220.261 90.125H239.438C239.414 92.3977 240.1 93.9839 241.497 94.8835C242.918 95.7831 244.598 96.233 246.54 96.233C250.848 96.233 254.376 94.339 257.122 90.5511C259.868 86.7396 261.786 81.8153 262.875 75.7784L262.307 76.7727C261.028 78.9981 259.348 80.8684 257.264 82.3835C255.205 83.8987 252.908 85.0469 250.375 85.8281C247.866 86.6094 245.261 87 242.562 87C238.064 87 234.277 85.9583 231.199 83.875C228.121 81.7917 225.931 78.9508 224.629 75.3523C223.327 71.7538 223.055 67.6818 223.812 63.1364C224.665 58.1174 226.594 53.7495 229.601 50.0327C232.607 46.2921 236.407 43.4039 241 41.3679C245.593 39.3082 250.659 38.2784 256.199 38.2784ZM255.489 53.1932C253.405 53.1932 251.44 53.6903 249.594 54.6847C247.747 55.6553 246.208 56.9929 244.977 58.6974C243.746 60.3783 242.989 62.2841 242.705 64.4148C242.468 66.214 242.622 67.812 243.166 69.2088C243.711 70.6056 244.61 71.6946 245.865 72.4759C247.12 73.2571 248.67 73.6477 250.517 73.6477C252.08 73.6477 253.571 73.3636 254.991 72.7955C256.412 72.2273 257.702 71.446 258.862 70.4517C260.046 69.4337 261.017 68.2382 261.774 66.8651C262.555 65.492 263.064 64.0123 263.301 62.4261C263.585 60.5795 263.443 58.9697 262.875 57.5966C262.307 56.1998 261.395 55.1226 260.141 54.3651C258.886 53.5838 257.335 53.1932 255.489 53.1932Z" fill="white"/>
<rect x="1575" y="700" width="150" height="150" rx="25" fill="#FF7175"/>
<path d="M1673.01 739.273L1660.94 812H1641.19L1650.28 757.455H1649.86L1632.39 766.972L1635.09 750.21L1654.83 739.273H1673.01Z" fill="white"/>
<rect x="1575" y="175" width="150" height="150" rx="25" fill="#385CC7"/>
<path d="M1622.55 287L1660.48 230.466L1660.62 230.04H1627.1L1629.65 214.273H1683.63L1681.07 230.04L1642.86 287H1622.55Z" fill="white"/>
<rect x="1575" y="350" width="150" height="150" rx="25" fill="#FF7175"/>
<path d="M1656.2 388.278C1660.55 388.278 1664.57 388.977 1668.24 390.374C1671.91 391.77 1675 393.96 1677.51 396.943C1680.02 399.902 1681.73 403.738 1682.65 408.449C1683.58 413.16 1683.47 418.842 1682.34 425.494C1681.34 431.342 1679.73 436.586 1677.51 441.226C1675.3 445.866 1672.58 449.808 1669.34 453.051C1666.09 456.271 1662.44 458.733 1658.37 460.438C1654.32 462.142 1649.95 462.994 1645.26 462.994C1639.86 462.994 1635.25 461.976 1631.41 459.94C1627.6 457.904 1624.72 455.158 1622.78 451.702C1620.87 448.245 1620.02 444.386 1620.26 440.125H1639.44C1639.41 442.398 1640.1 443.984 1641.5 444.884C1642.92 445.783 1644.6 446.233 1646.54 446.233C1650.85 446.233 1654.38 444.339 1657.12 440.551C1659.87 436.74 1661.79 431.815 1662.88 425.778L1662.31 426.773C1661.03 428.998 1659.35 430.868 1657.26 432.384C1655.2 433.899 1652.91 435.047 1650.38 435.828C1647.87 436.609 1645.26 437 1642.56 437C1638.06 437 1634.28 435.958 1631.2 433.875C1628.12 431.792 1625.93 428.951 1624.63 425.352C1623.33 421.754 1623.05 417.682 1623.81 413.136C1624.66 408.117 1626.59 403.75 1629.6 400.033C1632.61 396.292 1636.41 393.404 1641 391.368C1645.59 389.308 1650.66 388.278 1656.2 388.278ZM1655.49 403.193C1653.41 403.193 1651.44 403.69 1649.59 404.685C1647.75 405.655 1646.21 406.993 1644.98 408.697C1643.75 410.378 1642.99 412.284 1642.7 414.415C1642.47 416.214 1642.62 417.812 1643.17 419.209C1643.71 420.606 1644.61 421.695 1645.87 422.476C1647.12 423.257 1648.67 423.648 1650.52 423.648C1652.08 423.648 1653.57 423.364 1654.99 422.795C1656.41 422.227 1657.7 421.446 1658.86 420.452C1660.05 419.434 1661.02 418.238 1661.77 416.865C1662.56 415.492 1663.06 414.012 1663.3 412.426C1663.59 410.58 1663.44 408.97 1662.88 407.597C1662.31 406.2 1661.4 405.123 1660.14 404.365C1658.89 403.584 1657.34 403.193 1655.49 403.193Z" fill="white"/>
<rect x="1575" width="150" height="150" rx="25" fill="#1E1E1E"/>
<path d="M1638.61 89.2727L1638.89 87.5682C1639.55 83.6856 1640.38 80.5843 1641.38 78.2642C1642.4 75.9441 1643.63 74.0857 1645.07 72.6889C1646.52 71.2685 1648.2 69.9782 1650.11 68.8182C1651.77 67.8239 1653.27 66.8651 1654.62 65.9418C1656 65.0185 1657.12 64.036 1658 62.9943C1658.87 61.9527 1659.42 60.7689 1659.63 59.4432C1659.82 58.2595 1659.7 57.2178 1659.28 56.3182C1658.85 55.4186 1658.2 54.7202 1657.32 54.223C1656.45 53.7259 1655.42 53.4773 1654.23 53.4773C1652.95 53.4773 1651.72 53.7732 1650.54 54.3651C1649.36 54.9569 1648.35 55.7737 1647.52 56.8153C1646.69 57.857 1646.18 59.0644 1645.99 60.4375H1627.81C1628.71 55.2292 1630.58 51.0033 1633.42 47.7599C1636.26 44.4929 1639.73 42.1018 1643.83 40.5866C1647.92 39.0478 1652.29 38.2784 1656.93 38.2784C1661.95 38.2784 1666.32 39.0241 1670.04 40.5156C1673.78 41.9834 1676.55 44.2088 1678.35 47.1918C1680.14 50.151 1680.68 53.8561 1679.94 58.3068C1679.47 61.1951 1678.57 63.7282 1677.24 65.9062C1675.94 68.0606 1674.29 69.9664 1672.27 71.6236C1670.26 73.2571 1667.99 74.7367 1665.45 76.0625C1663.56 77.0568 1661.94 78.0748 1660.59 79.1165C1659.26 80.1581 1658.19 81.3537 1657.36 82.7031C1656.55 84.0526 1655.98 85.6742 1655.65 87.5682L1655.37 89.2727H1638.61ZM1643.72 113.136C1640.95 113.136 1638.69 112.178 1636.94 110.26C1635.21 108.319 1634.49 105.963 1634.77 103.193C1635.06 100.494 1636.28 98.1861 1638.43 96.2685C1640.61 94.3509 1643.08 93.392 1645.85 93.392C1648.48 93.392 1650.67 94.3509 1652.42 96.2685C1654.2 98.1861 1654.94 100.494 1654.66 103.193C1654.47 105.04 1653.82 106.721 1652.71 108.236C1651.62 109.727 1650.27 110.923 1648.66 111.822C1647.07 112.698 1645.43 113.136 1643.72 113.136Z" fill="white"/>
<rect x="525" y="350" width="150" height="150" rx="25" fill="#2AD5AE"/>
<path d="M568.284 462L570.628 447.795L601.523 425.352C603.582 423.861 605.358 422.464 606.849 421.162C608.365 419.836 609.584 418.475 610.507 417.078C611.43 415.681 612.034 414.131 612.318 412.426C612.626 410.556 612.484 408.958 611.892 407.632C611.324 406.283 610.401 405.253 609.122 404.543C607.844 403.832 606.305 403.477 604.506 403.477C602.683 403.477 601.014 403.844 599.499 404.578C597.983 405.312 596.717 406.389 595.699 407.81C594.705 409.23 594.042 410.958 593.71 412.994H574.96C575.813 407.881 577.695 403.477 580.607 399.784C583.542 396.091 587.259 393.25 591.757 391.261C596.279 389.273 601.357 388.278 606.991 388.278C612.815 388.278 617.716 389.214 621.693 391.084C625.67 392.93 628.547 395.535 630.322 398.896C632.122 402.258 632.631 406.2 631.849 410.722C631.376 413.515 630.322 416.285 628.689 419.031C627.079 421.777 624.487 424.831 620.912 428.193C617.361 431.531 612.437 435.509 606.139 440.125L598.398 445.807L598.327 446.233H626.736L624.108 462H568.284Z" fill="white"/>
<rect x="350" y="350" width="150" height="150" rx="25" fill="#1E1E1E"/>
<path d="M413.608 439.273L413.892 437.568C414.555 433.686 415.384 430.584 416.378 428.264C417.396 425.944 418.627 424.086 420.071 422.689C421.515 421.268 423.196 419.978 425.114 418.818C426.771 417.824 428.274 416.865 429.624 415.942C430.997 415.018 432.121 414.036 432.997 412.994C433.873 411.953 434.418 410.769 434.631 409.443C434.82 408.259 434.702 407.218 434.276 406.318C433.849 405.419 433.198 404.72 432.322 404.223C431.446 403.726 430.417 403.477 429.233 403.477C427.955 403.477 426.723 403.773 425.54 404.365C424.356 404.957 423.35 405.774 422.521 406.815C421.693 407.857 421.184 409.064 420.994 410.438H402.812C403.712 405.229 405.582 401.003 408.423 397.76C411.264 394.493 414.732 392.102 418.828 390.587C422.924 389.048 427.292 388.278 431.932 388.278C436.951 388.278 441.319 389.024 445.036 390.516C448.776 391.983 451.546 394.209 453.345 397.192C455.144 400.151 455.677 403.856 454.943 408.307C454.47 411.195 453.57 413.728 452.244 415.906C450.942 418.061 449.285 419.966 447.273 421.624C445.26 423.257 442.988 424.737 440.455 426.062C438.561 427.057 436.939 428.075 435.589 429.116C434.264 430.158 433.187 431.354 432.358 432.703C431.553 434.053 430.985 435.674 430.653 437.568L430.369 439.273H413.608ZM418.722 463.136C415.952 463.136 413.691 462.178 411.939 460.26C410.211 458.319 409.489 455.963 409.773 453.193C410.057 450.494 411.276 448.186 413.43 446.268C415.608 444.351 418.082 443.392 420.852 443.392C423.48 443.392 425.67 444.351 427.422 446.268C429.197 448.186 429.943 450.494 429.659 453.193C429.47 455.04 428.819 456.721 427.706 458.236C426.617 459.727 425.268 460.923 423.658 461.822C422.071 462.698 420.426 463.136 418.722 463.136Z" fill="white"/>
<rect x="175" y="350" width="150" height="150" rx="25" fill="#2AD5AE"/>
<path d="M273.011 389.273L260.938 462H241.193L250.284 407.455H249.858L232.386 416.972L235.085 400.21L254.83 389.273H273.011Z" fill="white"/>
<rect y="350" width="150" height="150" rx="25" fill="#2AD5AE"/>
<path d="M69.6761 463.989C63.0473 463.989 57.5668 462.473 53.2344 459.443C48.902 456.389 45.9072 452.009 44.25 446.304C42.5928 440.598 42.4508 433.757 43.8239 425.778C45.197 417.777 47.6473 410.982 51.1747 405.395C54.7259 399.808 59.1293 395.558 64.3849 392.646C69.6643 389.734 75.5947 388.278 82.1761 388.278C88.7576 388.278 94.2027 389.734 98.5114 392.646C102.82 395.558 105.815 399.808 107.496 405.395C109.177 410.958 109.354 417.753 108.028 425.778C106.703 433.78 104.264 440.634 100.713 446.339C97.1856 452.045 92.7704 456.413 87.4673 459.443C82.188 462.473 76.2576 463.989 69.6761 463.989ZM72.375 447.938C75.7841 447.938 78.8381 446.162 81.5369 442.611C84.2595 439.036 86.2718 433.425 87.5739 425.778C88.4261 420.807 88.6274 416.735 88.1776 413.562C87.7277 410.366 86.7571 408.011 85.2656 406.496C83.7741 404.957 81.892 404.188 79.6193 404.188C76.2102 404.188 73.1089 405.928 70.3153 409.408C67.5455 412.864 65.5331 418.321 64.2784 425.778C63.4261 430.892 63.2367 435.082 63.7102 438.349C64.1837 441.616 65.178 444.031 66.6932 445.594C68.2083 447.156 70.1023 447.938 72.375 447.938Z" fill="white"/>
<rect x="700" y="350" width="150" height="150" rx="25" fill="#385CC7"/>
<path d="M769.676 463.989C763.047 463.989 757.567 462.473 753.234 459.443C748.902 456.389 745.907 452.009 744.25 446.304C742.593 440.598 742.451 433.757 743.824 425.778C745.197 417.777 747.647 410.982 751.175 405.395C754.726 399.808 759.129 395.558 764.385 392.646C769.664 389.734 775.595 388.278 782.176 388.278C788.758 388.278 794.203 389.734 798.511 392.646C802.82 395.558 805.815 399.808 807.496 405.395C809.177 410.958 809.354 417.753 808.028 425.778C806.703 433.78 804.264 440.634 800.713 446.339C797.186 452.045 792.77 456.413 787.467 459.443C782.188 462.473 776.258 463.989 769.676 463.989ZM772.375 447.938C775.784 447.938 778.838 446.162 781.537 442.611C784.259 439.036 786.272 433.425 787.574 425.778C788.426 420.807 788.627 416.735 788.178 413.562C787.728 410.366 786.757 408.011 785.266 406.496C783.774 404.957 781.892 404.188 779.619 404.188C776.21 404.188 773.109 405.928 770.315 409.408C767.545 412.864 765.533 418.321 764.278 425.778C763.426 430.892 763.237 435.082 763.71 438.349C764.184 441.616 765.178 444.031 766.693 445.594C768.208 447.156 770.102 447.938 772.375 447.938Z" fill="white"/>
<rect x="875" y="525" width="150" height="150" rx="25" fill="#385CC7"/>
<path d="M947.392 637.994C943.036 637.994 939.023 637.296 935.354 635.899C931.684 634.502 928.595 632.312 926.085 629.33C923.576 626.323 921.859 622.44 920.936 617.682C920.013 612.923 920.119 607.194 921.256 600.494C922.226 594.694 923.824 589.509 926.05 584.94C928.275 580.348 931.009 576.441 934.253 573.222C937.496 569.978 941.154 567.516 945.226 565.835C949.298 564.131 953.666 563.278 958.33 563.278C963.727 563.278 968.332 564.296 972.143 566.332C975.979 568.345 978.867 571.067 980.808 574.5C982.75 577.909 983.59 581.697 983.33 585.864H964.153C964.153 583.757 963.455 582.265 962.058 581.389C960.661 580.49 958.992 580.04 957.051 580.04C952.766 580.04 949.25 581.934 946.504 585.722C943.758 589.486 941.829 594.315 940.716 600.21L941.284 599.216C942.586 596.991 944.267 595.12 946.327 593.605C948.41 592.09 950.706 590.942 953.216 590.161C955.749 589.379 958.353 588.989 961.028 588.989C965.55 588.989 969.35 590.03 972.428 592.114C975.505 594.197 977.695 597.05 978.997 600.672C980.299 604.294 980.56 608.402 979.778 612.994C978.95 618.061 977.032 622.464 974.026 626.205C971.019 629.945 967.219 632.845 962.626 634.905C958.034 636.964 952.955 637.994 947.392 637.994ZM948.102 623.08C950.209 623.08 952.174 622.594 953.997 621.624C955.844 620.629 957.383 619.28 958.614 617.575C959.845 615.847 960.602 613.894 960.886 611.716C961.17 609.869 961.028 608.248 960.46 606.851C959.916 605.43 959.016 604.33 957.761 603.548C956.507 602.743 954.944 602.341 953.074 602.341C951.535 602.341 950.055 602.625 948.635 603.193C947.214 603.761 945.924 604.554 944.764 605.572C943.604 606.59 942.634 607.798 941.852 609.195C941.071 610.568 940.55 612.071 940.29 613.705C940.029 615.622 940.183 617.279 940.751 618.676C941.32 620.073 942.231 621.162 943.486 621.943C944.764 622.701 946.303 623.08 948.102 623.08Z" fill="white"/>
<rect x="1225" y="525" width="150" height="150" rx="25" fill="#F8D03F"/>
<path d="M1295.69 637.994C1289.84 637.994 1284.75 637.095 1280.42 635.295C1276.11 633.473 1272.89 630.999 1270.76 627.874C1268.63 624.725 1267.89 621.186 1268.56 617.256C1269.08 614.273 1270.3 611.538 1272.21 609.053C1274.16 606.567 1276.55 604.495 1279.39 602.838C1282.23 601.181 1285.25 600.116 1288.44 599.642V599.074C1284.51 598.364 1281.45 596.517 1279.25 593.534C1277.07 590.551 1276.3 587.047 1276.94 583.023C1277.55 579.211 1279.3 575.826 1282.19 572.866C1285.11 569.884 1288.8 567.54 1293.27 565.835C1297.77 564.131 1302.7 563.278 1308.05 563.278C1313.4 563.278 1318.02 564.143 1321.93 565.871C1325.84 567.575 1328.75 569.919 1330.67 572.902C1332.58 575.861 1333.23 579.235 1332.62 583.023C1331.96 587.095 1330.05 590.61 1326.9 593.57C1323.75 596.529 1320.02 598.364 1315.72 599.074V599.642C1318.77 600.116 1321.43 601.181 1323.71 602.838C1326 604.472 1327.7 606.531 1328.78 609.017C1329.87 611.503 1330.16 614.249 1329.64 617.256C1328.97 621.162 1327.07 624.689 1323.92 627.838C1320.77 630.963 1316.75 633.437 1311.85 635.26C1306.97 637.083 1301.58 637.994 1295.69 637.994ZM1297.96 624.358C1299.83 624.358 1301.55 623.979 1303.11 623.222C1304.67 622.44 1305.97 621.387 1307.02 620.061C1308.08 618.712 1308.76 617.208 1309.04 615.551C1309.32 613.847 1309.16 612.343 1308.54 611.041C1307.93 609.739 1306.94 608.721 1305.6 607.987C1304.27 607.253 1302.67 606.886 1300.8 606.886C1298.93 606.886 1297.2 607.265 1295.62 608.023C1294.05 608.757 1292.75 609.775 1291.71 611.077C1290.67 612.379 1290.01 613.87 1289.72 615.551C1289.44 617.232 1289.6 618.747 1290.22 620.097C1290.86 621.422 1291.85 622.464 1293.2 623.222C1294.55 623.979 1296.14 624.358 1297.96 624.358ZM1303.07 593.25C1304.73 593.25 1306.25 592.907 1307.62 592.22C1309.02 591.51 1310.18 590.551 1311.1 589.344C1312.02 588.136 1312.61 586.787 1312.88 585.295C1313.14 583.757 1313.01 582.407 1312.48 581.247C1311.96 580.063 1311.12 579.14 1309.96 578.477C1308.8 577.814 1307.41 577.483 1305.77 577.483C1304.14 577.483 1302.61 577.826 1301.19 578.513C1299.79 579.176 1298.61 580.099 1297.64 581.283C1296.69 582.443 1296.09 583.78 1295.83 585.295C1295.57 586.811 1295.71 588.172 1296.26 589.379C1296.8 590.563 1297.65 591.51 1298.81 592.22C1300 592.907 1301.42 593.25 1303.07 593.25Z" fill="white"/>
<rect x="1050" y="525" width="150" height="150" rx="25" fill="#1E1E1E"/>
<path d="M1113.61 614.273L1113.89 612.568C1114.55 608.686 1115.38 605.584 1116.38 603.264C1117.4 600.944 1118.63 599.086 1120.07 597.689C1121.52 596.268 1123.2 594.978 1125.11 593.818C1126.77 592.824 1128.27 591.865 1129.62 590.942C1131 590.018 1132.12 589.036 1133 587.994C1133.87 586.953 1134.42 585.769 1134.63 584.443C1134.82 583.259 1134.7 582.218 1134.28 581.318C1133.85 580.419 1133.2 579.72 1132.32 579.223C1131.45 578.726 1130.42 578.477 1129.23 578.477C1127.95 578.477 1126.72 578.773 1125.54 579.365C1124.36 579.957 1123.35 580.774 1122.52 581.815C1121.69 582.857 1121.18 584.064 1120.99 585.438H1102.81C1103.71 580.229 1105.58 576.003 1108.42 572.76C1111.26 569.493 1114.73 567.102 1118.83 565.587C1122.92 564.048 1127.29 563.278 1131.93 563.278C1136.95 563.278 1141.32 564.024 1145.04 565.516C1148.78 566.983 1151.55 569.209 1153.35 572.192C1155.14 575.151 1155.68 578.856 1154.94 583.307C1154.47 586.195 1153.57 588.728 1152.24 590.906C1150.94 593.061 1149.29 594.966 1147.27 596.624C1145.26 598.257 1142.99 599.737 1140.45 601.062C1138.56 602.057 1136.94 603.075 1135.59 604.116C1134.26 605.158 1133.19 606.354 1132.36 607.703C1131.55 609.053 1130.98 610.674 1130.65 612.568L1130.37 614.273H1113.61ZM1118.72 638.136C1115.95 638.136 1113.69 637.178 1111.94 635.26C1110.21 633.319 1109.49 630.963 1109.77 628.193C1110.06 625.494 1111.28 623.186 1113.43 621.268C1115.61 619.351 1118.08 618.392 1120.85 618.392C1123.48 618.392 1125.67 619.351 1127.42 621.268C1129.2 623.186 1129.94 625.494 1129.66 628.193C1129.47 630.04 1128.82 631.721 1127.71 633.236C1126.62 634.727 1125.27 635.923 1123.66 636.822C1122.07 637.698 1120.43 638.136 1118.72 638.136Z" fill="white"/>
<rect x="1400" y="525" width="150" height="150" rx="25" fill="#385CC7"/>
<path d="M1471.26 637.994C1465.7 637.994 1460.92 637 1456.91 635.011C1452.91 633.023 1449.97 630.288 1448.07 626.808C1446.18 623.328 1445.57 619.339 1446.26 614.841H1465.44C1465.11 617.327 1465.75 619.327 1467.36 620.842C1468.96 622.334 1471.07 623.08 1473.68 623.08C1475.74 623.08 1477.61 622.653 1479.29 621.801C1480.97 620.925 1482.38 619.706 1483.51 618.143C1484.65 616.557 1485.39 614.699 1485.75 612.568C1486.11 610.438 1485.97 608.591 1485.36 607.028C1484.74 605.442 1483.74 604.223 1482.34 603.371C1480.94 602.495 1479.24 602.057 1477.23 602.057C1475.12 602.057 1473.11 602.566 1471.19 603.584C1469.27 604.578 1467.73 605.963 1466.57 607.739L1449.81 604.33L1459.33 564.273H1508.19L1505.64 580.04H1472.97L1468.85 596.091H1469.27C1470.79 593.889 1473.06 592.066 1476.09 590.622C1479.14 589.154 1482.51 588.42 1486.18 588.42C1490.51 588.42 1494.2 589.427 1497.26 591.439C1500.31 593.451 1502.52 596.233 1503.9 599.784C1505.27 603.335 1505.57 607.407 1504.78 612C1504 617.066 1502.09 621.553 1499.03 625.459C1495.98 629.365 1492.07 632.431 1487.31 634.656C1482.55 636.882 1477.2 637.994 1471.26 637.994Z" fill="white"/>
<rect x="700" y="525" width="150" height="150" rx="25" fill="#2AD5AE"/>
<path d="M747.551 637L785.477 580.466L785.619 580.04H752.097L754.653 564.273H808.631L806.074 580.04L767.864 637H747.551Z" fill="white"/>
<rect x="1575" y="525" width="150" height="150" rx="25" fill="#2AD5AE"/>
<path d="M1647.39 637.994C1643.04 637.994 1639.02 637.296 1635.35 635.899C1631.68 634.502 1628.59 632.312 1626.09 629.33C1623.58 626.323 1621.86 622.44 1620.94 617.682C1620.01 612.923 1620.12 607.194 1621.26 600.494C1622.23 594.694 1623.82 589.509 1626.05 584.94C1628.28 580.348 1631.01 576.441 1634.25 573.222C1637.5 569.978 1641.15 567.516 1645.23 565.835C1649.3 564.131 1653.67 563.278 1658.33 563.278C1663.73 563.278 1668.33 564.296 1672.14 566.332C1675.98 568.345 1678.87 571.067 1680.81 574.5C1682.75 577.909 1683.59 581.697 1683.33 585.864H1664.15C1664.15 583.757 1663.46 582.265 1662.06 581.389C1660.66 580.49 1658.99 580.04 1657.05 580.04C1652.77 580.04 1649.25 581.934 1646.5 585.722C1643.76 589.486 1641.83 594.315 1640.72 600.21L1641.28 599.216C1642.59 596.991 1644.27 595.12 1646.33 593.605C1648.41 592.09 1650.71 590.942 1653.22 590.161C1655.75 589.379 1658.35 588.989 1661.03 588.989C1665.55 588.989 1669.35 590.03 1672.43 592.114C1675.51 594.197 1677.7 597.05 1679 600.672C1680.3 604.294 1680.56 608.402 1679.78 612.994C1678.95 618.061 1677.03 622.464 1674.03 626.205C1671.02 629.945 1667.22 632.845 1662.63 634.905C1658.03 636.964 1652.96 637.994 1647.39 637.994ZM1648.1 623.08C1650.21 623.08 1652.17 622.594 1654 621.624C1655.84 620.629 1657.38 619.28 1658.61 617.575C1659.84 615.847 1660.6 613.894 1660.89 611.716C1661.17 609.869 1661.03 608.248 1660.46 606.851C1659.92 605.43 1659.02 604.33 1657.76 603.548C1656.51 602.743 1654.94 602.341 1653.07 602.341C1651.54 602.341 1650.06 602.625 1648.63 603.193C1647.21 603.761 1645.92 604.554 1644.76 605.572C1643.6 606.59 1642.63 607.798 1641.85 609.195C1641.07 610.568 1640.55 612.071 1640.29 613.705C1640.03 615.622 1640.18 617.279 1640.75 618.676C1641.32 620.073 1642.23 621.162 1643.49 621.943C1644.76 622.701 1646.3 623.08 1648.1 623.08Z" fill="white"/>
<rect x="875" y="350" width="150" height="150" rx="25" fill="#FF7175"/>
<path d="M945.545 462.994C939.627 462.994 934.549 462.012 930.311 460.047C926.073 458.058 922.948 455.324 920.936 451.844C918.947 448.364 918.344 444.363 919.125 439.841H938.727C938.467 441.238 938.644 442.492 939.26 443.605C939.899 444.694 940.87 445.546 942.172 446.162C943.474 446.777 944.977 447.085 946.682 447.085C948.718 447.085 950.553 446.671 952.186 445.842C953.843 445.014 955.193 443.937 956.234 442.611C957.3 441.285 957.951 439.888 958.188 438.42C958.448 436.905 958.199 435.674 957.442 434.727C956.684 433.757 955.56 433.046 954.068 432.597C952.577 432.123 950.825 431.886 948.812 431.886H941L943.273 418.25H950.233C952.245 418.25 954.092 417.883 955.773 417.149C957.454 416.415 958.85 415.409 959.963 414.131C961.076 412.829 961.762 411.361 962.023 409.727C962.236 408.473 962.129 407.384 961.703 406.46C961.301 405.513 960.579 404.779 959.537 404.259C958.519 403.738 957.17 403.477 955.489 403.477C953.666 403.477 951.914 403.797 950.233 404.436C948.552 405.075 947.143 405.963 946.007 407.099C944.871 408.236 944.196 409.538 943.983 411.006H925.233C925.967 406.555 927.802 402.625 930.737 399.216C933.673 395.807 937.366 393.132 941.817 391.19C946.291 389.249 951.18 388.278 956.483 388.278C962.023 388.278 966.734 389.296 970.616 391.332C974.499 393.368 977.352 396.067 979.175 399.429C980.998 402.791 981.578 406.46 980.915 410.438C980.205 414.723 978.275 417.966 975.126 420.168C971.978 422.369 968.036 423.671 963.301 424.074V424.642C968.462 425.234 972.451 427.128 975.268 430.324C978.086 433.52 979.116 437.45 978.358 442.114C977.719 446.091 975.884 449.654 972.854 452.803C969.823 455.951 965.941 458.437 961.206 460.26C956.495 462.083 951.275 462.994 945.545 462.994Z" fill="white"/>
<rect y="525" width="150" height="150" rx="25" fill="#385CC7"/>
<path d="M43.2841 637L45.6278 622.795L76.5227 600.352C78.5824 598.861 80.358 597.464 81.8494 596.162C83.3646 594.836 84.5838 593.475 85.5071 592.078C86.4304 590.681 87.0341 589.131 87.3182 587.426C87.6259 585.556 87.4839 583.958 86.892 582.632C86.3239 581.283 85.4006 580.253 84.1222 579.543C82.8438 578.832 81.3049 578.477 79.5057 578.477C77.6828 578.477 76.0137 578.844 74.4986 579.578C72.9834 580.312 71.7169 581.389 70.6989 582.81C69.7045 584.23 69.0417 585.958 68.7102 587.994H49.9602C50.8125 582.881 52.6946 578.477 55.6065 574.784C58.5421 571.091 62.259 568.25 66.7571 566.261C71.2789 564.273 76.357 563.278 81.9915 563.278C87.8153 563.278 92.7159 564.214 96.6932 566.084C100.67 567.93 103.547 570.535 105.322 573.896C107.122 577.258 107.631 581.2 106.849 585.722C106.376 588.515 105.322 591.285 103.689 594.031C102.079 596.777 99.4867 599.831 95.9119 603.193C92.3608 606.531 87.4366 610.509 81.1392 615.125L73.3977 620.807L73.3267 621.233H101.736L99.108 637H43.2841Z" fill="white"/>
<rect x="175" y="525" width="150" height="150" rx="25" fill="#385CC7"/>
<path d="M245.545 637.994C239.627 637.994 234.549 637.012 230.311 635.047C226.073 633.058 222.948 630.324 220.936 626.844C218.947 623.364 218.344 619.363 219.125 614.841H238.727C238.467 616.238 238.644 617.492 239.26 618.605C239.899 619.694 240.87 620.546 242.172 621.162C243.474 621.777 244.977 622.085 246.682 622.085C248.718 622.085 250.553 621.671 252.186 620.842C253.843 620.014 255.193 618.937 256.234 617.611C257.3 616.285 257.951 614.888 258.188 613.42C258.448 611.905 258.199 610.674 257.442 609.727C256.684 608.757 255.56 608.046 254.068 607.597C252.577 607.123 250.825 606.886 248.812 606.886H241L243.273 593.25H250.233C252.245 593.25 254.092 592.883 255.773 592.149C257.454 591.415 258.85 590.409 259.963 589.131C261.076 587.829 261.762 586.361 262.023 584.727C262.236 583.473 262.129 582.384 261.703 581.46C261.301 580.513 260.579 579.779 259.537 579.259C258.519 578.738 257.17 578.477 255.489 578.477C253.666 578.477 251.914 578.797 250.233 579.436C248.552 580.075 247.143 580.963 246.007 582.099C244.871 583.236 244.196 584.538 243.983 586.006H225.233C225.967 581.555 227.802 577.625 230.737 574.216C233.673 570.807 237.366 568.132 241.817 566.19C246.291 564.249 251.18 563.278 256.483 563.278C262.023 563.278 266.734 564.296 270.616 566.332C274.499 568.368 277.352 571.067 279.175 574.429C280.998 577.791 281.578 581.46 280.915 585.438C280.205 589.723 278.275 592.966 275.126 595.168C271.978 597.369 268.036 598.671 263.301 599.074V599.642C268.462 600.234 272.451 602.128 275.268 605.324C278.086 608.52 279.116 612.45 278.358 617.114C277.719 621.091 275.884 624.654 272.854 627.803C269.823 630.951 265.941 633.437 261.206 635.26C256.495 637.083 251.275 637.994 245.545 637.994Z" fill="white"/>
<rect x="525" y="525" width="150" height="150" rx="25" fill="#FF7175"/>
<path d="M568.284 637L570.628 622.795L601.523 600.352C603.582 598.861 605.358 597.464 606.849 596.162C608.365 594.836 609.584 593.475 610.507 592.078C611.43 590.681 612.034 589.131 612.318 587.426C612.626 585.556 612.484 583.958 611.892 582.632C611.324 581.283 610.401 580.253 609.122 579.543C607.844 578.832 606.305 578.477 604.506 578.477C602.683 578.477 601.014 578.844 599.499 579.578C597.983 580.312 596.717 581.389 595.699 582.81C594.705 584.23 594.042 585.958 593.71 587.994H574.96C575.813 582.881 577.695 578.477 580.607 574.784C583.542 571.091 587.259 568.25 591.757 566.261C596.279 564.273 601.357 563.278 606.991 563.278C612.815 563.278 617.716 564.214 621.693 566.084C625.67 567.93 628.547 570.535 630.322 573.896C632.122 577.258 632.631 581.2 631.849 585.722C631.376 588.515 630.322 591.285 628.689 594.031C627.079 596.777 624.487 599.831 620.912 603.193C617.361 606.531 612.437 610.509 606.139 615.125L598.398 620.807L598.327 621.233H626.736L624.108 637H568.284Z" fill="white"/>
<rect x="350" y="525" width="150" height="150" rx="25" fill="#2AD5AE"/>
<path d="M420.545 637.994C414.627 637.994 409.549 637.012 405.311 635.047C401.073 633.058 397.948 630.324 395.936 626.844C393.947 623.364 393.344 619.363 394.125 614.841H413.727C413.467 616.238 413.644 617.492 414.26 618.605C414.899 619.694 415.87 620.546 417.172 621.162C418.474 621.777 419.977 622.085 421.682 622.085C423.718 622.085 425.553 621.671 427.186 620.842C428.843 620.014 430.193 618.937 431.234 617.611C432.3 616.285 432.951 614.888 433.188 613.42C433.448 611.905 433.199 610.674 432.442 609.727C431.684 608.757 430.56 608.046 429.068 607.597C427.577 607.123 425.825 606.886 423.812 606.886H416L418.273 593.25H425.233C427.245 593.25 429.092 592.883 430.773 592.149C432.454 591.415 433.85 590.409 434.963 589.131C436.076 587.829 436.762 586.361 437.023 584.727C437.236 583.473 437.129 582.384 436.703 581.46C436.301 580.513 435.579 579.779 434.537 579.259C433.519 578.738 432.17 578.477 430.489 578.477C428.666 578.477 426.914 578.797 425.233 579.436C423.552 580.075 422.143 580.963 421.007 582.099C419.871 583.236 419.196 584.538 418.983 586.006H400.233C400.967 581.555 402.802 577.625 405.737 574.216C408.673 570.807 412.366 568.132 416.817 566.19C421.291 564.249 426.18 563.278 431.483 563.278C437.023 563.278 441.734 564.296 445.616 566.332C449.499 568.368 452.352 571.067 454.175 574.429C455.998 577.791 456.578 581.46 455.915 585.438C455.205 589.723 453.275 592.966 450.126 595.168C446.978 597.369 443.036 598.671 438.301 599.074V599.642C443.462 600.234 447.451 602.128 450.268 605.324C453.086 608.52 454.116 612.45 453.358 617.114C452.719 621.091 450.884 624.654 447.854 627.803C444.823 630.951 440.941 633.437 436.206 635.26C431.495 637.083 426.275 637.994 420.545 637.994Z" fill="white"/>
</svg>
